<?xml version="1.0" encoding="iso-8859-1"?>
<!-- Uploaded to: SVG Repo, www.svgrepo.com, Generator: SVG Repo Mixer Tools -->
<svg version="1.1" id="Layer_1" xmlns="http://www.w3.org/2000/svg" xmlns:xlink="http://www.w3.org/1999/xlink" 
	 viewBox="0 0 512 512" xml:space="preserve">
<rect x="3.608" y="108.616" width="504.708" height="357.961"/>
<path style="fill:#6B6B6B;" d="M505.832,119.835v344.336H6.184V119.835H505.832 M512,113.66H0v356.72h512V113.66z"/>
<path style="fill:#DBDBDB;" d="M0,121.348V57.62c0.031-8.824,7.176-15.969,16-16h480c8.824,0.031,15.969,7.176,16,16v63.728H0z"/>
<polygon style="fill:#E21B1B;" points="471.64,103.484 171.536,103.484 200.248,59.484 471.64,59.484 "/>
<circle cx="53.896" cy="80.875" r="13.608"/>
<circle cx="89.976" cy="80.875" r="13.608"/>
<circle cx="126.054" cy="80.875" r="13.608"/>
<g>
	<path style="fill:#FFFFFF;" d="M215.648,73.195l1.912,8.328c0.408,1.952,0.8,3.952,1.176,5.944h0.072c0.368-2,0.976-4,1.504-5.912
		l2.4-8.368h3.776l2.296,8.128c0.568,2.144,1.064,4.144,1.472,6.144h0.072c0.296-2,0.728-4,1.208-6.144l2.032-8.128h4.552
		l-5.776,18.336h-4.344l-2.184-7.456c-0.574-1.929-1.039-3.89-1.392-5.872h-0.072c-0.343,1.984-0.808,3.945-1.392,5.872
		l-2.336,7.456h-4.328l-5.416-18.336L215.648,73.195z"/>
	<path style="fill:#FFFFFF;" d="M244.408,73.195l1.928,8.328c0.408,1.952,0.8,3.952,1.16,5.944h0.088c0.368-2,0.976-4,1.504-5.912
		l2.4-8.368h3.76l2.304,8.128c0.568,2.144,1.048,4.144,1.472,6.144h0.072c0.296-2,0.712-4,1.208-6.144l2.032-8.128h4.552
		l-5.76,18.336H256.8l-2.184-7.456c-0.568-1.931-1.033-3.891-1.392-5.872h-0.072c-0.341,1.983-0.803,3.945-1.384,5.872l-2.336,7.456
		h-4.344l-5.416-18.336L244.408,73.195z"/>
	<path style="fill:#FFFFFF;" d="M273.184,73.195l1.912,8.328c0.408,1.952,0.8,3.952,1.176,5.944h0.072c0.368-2,0.976-4,1.504-5.912
		l2.4-8.368H284l2.296,8.128c0.568,2.144,1.064,4.144,1.472,6.144h0.072c0.296-2,0.728-4,1.208-6.144l2.032-8.128h4.552
		l-5.76,18.336h-4.272l-2.184-7.456c-0.574-1.929-1.039-3.89-1.392-5.872h-0.104c-0.343,1.984-0.808,3.945-1.392,5.872l-2.336,7.456
		h-4.328l-5.416-18.336L273.184,73.195z"/>
	<path style="fill:#FFFFFF;" d="M296.344,88.971c-0.084-1.557,1.11-2.888,2.667-2.972c0.06-0.003,0.12-0.005,0.181-0.004
		c1.641,0.085,2.903,1.485,2.817,3.126c-0.079,1.523-1.296,2.738-2.817,2.817c-1.55,0.025-2.827-1.213-2.852-2.763
		C296.339,89.108,296.34,89.04,296.344,88.971z"/>
</g>
<polygon style="fill:#E21B1B;" points="378.888,470.34 133.12,470.34 167.144,444.484 344.872,444.484 "/>
<g>
	<polygon style="fill:#FFFFFF;" points="440.376,94.476 437.513,91.692 447.408,81.524 436.92,71.307 439.704,68.444 
		453.057,81.444 	"/>
	<rect x="421.629" y="79.486" style="fill:#FFFFFF;" width="26.416" height="4"/>
</g>
<rect x="281.948" y="173.123" style="fill:#6B6B6B;" width="86.434" height="12.336"/>
<rect x="299.237" y="207.701" style="fill:#DBDBDB;" width="69.145" height="12.336"/>
<rect x="212.783" y="173.123" style="fill:#FFFFFF;" width="34.587" height="12.336"/>
<rect x="230.072" y="207.701" style="fill:#DBDBDB;" width="34.577" height="12.336"/>
<rect x="333.804" y="242.268" style="fill:#FFFFFF;" width="34.577" height="12.336"/>
<g>
	<rect x="247.37" y="242.268" style="fill:#DBDBDB;" width="34.577" height="12.336"/>
	<rect x="333.804" y="314.768" style="fill:#DBDBDB;" width="34.577" height="12.336"/>
	<rect x="247.37" y="314.768" style="fill:#DBDBDB;" width="34.577" height="12.336"/>
</g>
<rect x="404.824" y="345.991" style="fill:#6B6B6B;" width="34.577" height="12.336"/>
<g>
	<rect x="212.783" y="345.991" style="fill:#FFFFFF;" width="51.866" height="12.336"/>
	<rect x="420.238" y="173.123" style="fill:#FFFFFF;" width="34.577" height="12.336"/>
</g>
<rect x="91.772" y="276.846" style="fill:#DBDBDB;" width="69.145" height="12.336"/>
<rect x="195.514" y="276.846" style="fill:#6B6B6B;" width="69.145" height="12.336"/>
<g>
	<rect x="281.948" y="276.846" style="fill:#DBDBDB;" width="69.145" height="12.336"/>
	<rect x="91.772" y="345.991" style="fill:#DBDBDB;" width="69.145" height="12.336"/>
</g>
<g>
	<rect x="385.66" y="276.846" style="fill:#FFFFFF;" width="69.145" height="12.336"/>
	<rect x="111.37" y="314.768" style="fill:#FFFFFF;" width="65" height="12.336"/>
</g>
<rect x="91.772" y="380.568" style="fill:#6B6B6B;" width="172.867" height="12.336"/>
<rect x="316.505" y="380.568" style="fill:#DBDBDB;" width="69.145" height="12.336"/>
<rect x="91.772" y="242.268" style="fill:#FFFFFF;" width="103.722" height="12.336"/>
<rect x="74.483" y="173.123" style="fill:#DBDBDB;" width="103.722" height="12.336"/>
<rect x="57.217" y="207.701" style="fill:#6B6B6B;" width="103.703" height="12.336"/>
</svg>